<svg xmlns="http://www.w3.org/2000/svg" viewBox="0 0 31 34" ><style type="text/css">.st0{fill:#E3C75F;}</style><path class="st0" d="M28.8,12.9c-0.1-0.9-0.1-2.5,0.7-3.1c0,0,0,0,0,0c0.7-0.2,1.2-0.5,0.8-1L19.9,5.7L3,8c0,0-1.9,0.3-1.8,3.3 c0.1,1.6,0.6,2.4,1.1,2.8l-1.4,0.4c-0.4,0.4,0.1,0.7,0.8,1c0,0,0,0,0,0c0.9,0.5,0.8,2.1,0.7,3.1c-3.1,0.9-2,1.2-2,1.2L1.2,20 c-0.5,0.4-1,1.3-0.9,2.8c0.2,3,1.8,3.2,1.8,3.2l11.1,3.6l16.7-4c0,0,1.1-0.3-2-1.2c-0.1-0.9-0.1-2.5,0.7-3.1c0,0,0,0,0,0 c0.7-0.2,1.2-0.5,0.8-1l-0.7-0.2c0.5-0.3,1.2-1.1,1.3-3c0.1-1.4-0.3-2.2-0.7-2.6l1.4-0.3C30.8,14.1,31.9,13.8,28.8,12.9z M14.8,12.9l2.8-0.6l9.5-2l1.4-0.3c-0.5,0.8-0.4,2-0.4,2.7c0,0.2,0,0.3,0.1,0.4l-1.5,0.4l-12,3L14.8,12.9z M2.8,15.8l1.4,0.3 l9.1,1.9l0.8,0.2l0,0l0,0l2.4,0.5l0.1,3.7L4.3,19.2l-1.2-0.3c0-0.1,0-0.3,0.1-0.4C3.2,17.8,3.2,16.6,2.8,15.8z M2.2,11.2 c0-0.8,0.1-1.4,0.4-1.7C2.8,9.3,3,9.3,3.2,9.3c0.1,0,0.1,0,0.1,0l7.3,2.4l3.6,1.2l-0.1,3.7L3.9,13.7l-0.5-0.2c0,0,0,0-0.1,0 C3.3,13.5,2.3,13.4,2.2,11.2z M13.2,28L2.5,25c0,0,0,0-0.1,0c0,0-1.1-0.1-1.1-2.3c0-0.8,0.1-1.4,0.4-1.7c0.2-0.2,0.4-0.2,0.5-0.2 c0.1,0,0.1,0,0.1,0c0,0,0,0,0,0l10.9,3.6L13.2,28z M27.3,24.2c0,0.2,0,0.3,0.1,0.4L13.8,28l0.1-3.7l2.9-0.6l0.4,0.1l1.6-0.5 l7.4-1.5l1.4-0.3C27.2,22.4,27.2,23.5,27.3,24.2z M28,19.3C28,19.3,28,19.3,28,19.3l-1.1,0.3l-9.7,2.7l-0.1-3.7l3.2-1L28,15 c0,0,0.4-0.1,0.7,0.2c0.3,0.3,0.4,0.9,0.4,1.7C29.1,19.2,28,19.3,28,19.3z"/></svg>
