<svg xmlns="http://www.w3.org/2000/svg" viewBox="0 0 60 60" ><path fill="#F4F4F4" d="M52,30 C52,17.8497355 42.1502645,8 30,8 C17.8497355,8 8,17.8497355 8,30 C8,42.1502645 17.8497355,52 30,52 C42.1502645,52 52,42.1502645 52,30 Z M0,30 C0,13.4314575 13.4314575,0 30,0 C46.5685425,0 60,13.4314575 60,30 C60,46.5685425 46.5685425,60 30,60 C13.4314575,60 0,46.5685425 0,30 Z"/>
<path fill="#E3E3E3" d="M20,24.9967748 C20,24.4445964 20.4043972,23.7889981 20.8874333,23.5405874 L29.1125667,19.3106517 C29.6026826,19.0586001 30.4043972,19.062241 30.8874333,19.3106517 L39.1125667,23.5405874 C39.6026826,23.7926391 40,24.440684 40,24.9967748 L40,27.9971598 C40,28.5493383 39.5446944,28.9969673 39.0081969,28.9969673 L20.9918031,28.9969673 C20.4440454,28.9969673 20,28.5532507 20,27.9971598 L20,24.9967748 L20,24.9967748 Z"/>
<path fill="#D0D0D0" d="M20,36.7815448 C20,36.2242988 20.4043972,35.5689204 20.8874333,35.3256792 L29.1125667,31.1837702 C29.6026826,30.9369639 30.4043972,30.940529 30.8874333,31.1837702 L39.1125667,35.3256792 C39.6026826,35.5724856 40,36.2257758 40,36.7815448 L40,39.8706002 C40,40.4278462 39.5446944,40.8795833 39.0081969,40.8795833 L20.9918031,40.8795833 C20.4440454,40.8795833 20,40.4263692 20,39.8706002 L20,36.7815448 L20,36.7815448 Z" transform="matrix(1 0 0 -1 0 71.88)"/></svg>
