<svg xmlns="http://www.w3.org/2000/svg" viewBox="173.8 -25.8 120 120" ><path d="M289,19.3c0,0.3,0,0.7-0.1,1l-7.4,29.6c-0.4,1.5-1.7,2.6-3.2,2.6l-44.4,0.2l0,0h-44.4c-1.5,0-2.9-1-3.3-2.6l-7.4-29.7 c-0.1-0.3-0.1-0.7-0.1-1c-2.9-0.9-4.9-3.6-4.9-6.7c0-3.9,3.2-7.1,7.1-7.1c3.9,0,7,3.1,7,7c0,2.2-1,4.2-2.6,5.5l9.3,9.3 c2.3,2.4,5.6,3.7,8.9,3.7c3.9,0,7.7-1.9,10-5L228.7,6c-1.3-1.3-2.1-3-2.1-5c0-3.9,3.2-7.1,7.1-7.1c3.9,0,7.1,3.2,7.1,7.1 c0,1.9-0.8,3.6-2,4.9l0,0L254,26.1c2.4,3.1,6.1,5,10,5c3.4,0,6.5-1.3,8.9-3.7l9.3-9.3c-1.6-1.3-2.6-3.3-2.6-5.5c0-3.9,3.2-7,7.1-7 s7.1,3.2,7.1,7.1C293.7,15.7,291.7,18.3,289,19.3z M280.8,63.2c0-1.8-1.5-3.4-3.4-3.4h-87c-1.8,0-3.4,1.5-3.4,3.4v8.1 c0,1.8,1.5,3.4,3.4,3.4h87c1.8,0,3.4-1.5,3.4-3.4V63.2z"/>
<rect x="173.8" y="-25.8" fill="none" width="120" height="120"/></svg>
