<svg xmlns="http://www.w3.org/2000/svg" xmlns:xlink="http://www.w3.org/1999/xlink"><defs><symbol id="empty" viewBox="0 0 60 60"><path fill="#F4F4F4" d="M52 30c0-12.15-9.85-22-22-22S8 17.85 8 30s9.85 22 22 22 22-9.85 22-22zM0 30C0 13.431 13.431 0 30 0c16.569 0 30 13.431 30 30 0 16.569-13.431 30-30 30C13.431 60 0 46.569 0 30z"/><path fill="#E3E3E3" d="M20 24.997c0-.552.404-1.208.887-1.456l8.226-4.23c.49-.252 1.291-.249 1.774 0l8.226 4.23c.49.252.887.9.887 1.456v3c0 .552-.455 1-.992 1H20.992a.993.993 0 0 1-.992-1v-3z"/><path fill="#D0D0D0" d="M20 35.098c0 .558.404 1.213.887 1.456l8.226 4.142c.49.247 1.291.243 1.774 0l8.226-4.142c.49-.246.887-.9.887-1.456V32.01c0-.557-.455-1.009-.992-1.009H20.992c-.548 0-.992.454-.992 1.01v3.088z"/></symbol><symbol id="vip" viewBox="173.8 -25.8 120 120"><path d="M289 19.3c0 .3 0 .7-.1 1l-7.4 29.6c-.4 1.5-1.7 2.6-3.2 2.6l-44.4.2h-44.4c-1.5 0-2.9-1-3.3-2.6l-7.4-29.7c-.1-.3-.1-.7-.1-1-2.9-.9-4.9-3.6-4.9-6.7 0-3.9 3.2-7.1 7.1-7.1 3.9 0 7 3.1 7 7 0 2.2-1 4.2-2.6 5.5l9.3 9.3c2.3 2.4 5.6 3.7 8.9 3.7 3.9 0 7.7-1.9 10-5L228.7 6c-1.3-1.3-2.1-3-2.1-5 0-3.9 3.2-7.1 7.1-7.1 3.9 0 7.1 3.2 7.1 7.1 0 1.9-.8 3.6-2 4.9L254 26.1c2.4 3.1 6.1 5 10 5 3.4 0 6.5-1.3 8.9-3.7l9.3-9.3c-1.6-1.3-2.6-3.3-2.6-5.5 0-3.9 3.2-7 7.1-7s7.1 3.2 7.1 7.1c-.1 3-2.1 5.6-4.8 6.6zm-8.2 43.9c0-1.8-1.5-3.4-3.4-3.4h-87c-1.8 0-3.4 1.5-3.4 3.4v8.1c0 1.8 1.5 3.4 3.4 3.4h87c1.8 0 3.4-1.5 3.4-3.4v-8.1z"/><path fill="none" d="M173.8-25.8h120v120h-120z"/></symbol><symbol id="book" viewBox="0 0 31 34"><style>.st0{fill:#e3c75f}</style><path class="st0" d="M28.8 12.9c-.1-.9-.1-2.5.7-3.1.7-.2 1.2-.5.8-1L19.9 5.7 3 8s-1.9.3-1.8 3.3c.1 1.6.6 2.4 1.1 2.8l-1.4.4c-.4.4.1.7.8 1 .9.5.8 2.1.7 3.1-3.1.9-2 1.2-2 1.2l.8.2c-.5.4-1 1.3-.9 2.8.2 3 1.8 3.2 1.8 3.2l11.1 3.6 16.7-4s1.1-.3-2-1.2c-.1-.9-.1-2.5.7-3.1.7-.2 1.2-.5.8-1l-.7-.2c.5-.3 1.2-1.1 1.3-3 .1-1.4-.3-2.2-.7-2.6l1.4-.3c.1-.1 1.2-.4-1.9-1.3zm-14 0l2.8-.6 9.5-2 1.4-.3c-.5.8-.4 2-.4 2.7 0 .2 0 .3.1.4l-1.5.4-12 3 .1-3.6zm-12 2.9l1.4.3 9.1 1.9.8.2 2.4.5.1 3.7-12.3-3.2-1.2-.3c0-.1 0-.3.1-.4 0-.7 0-1.9-.4-2.7zm-.6-4.6c0-.8.1-1.4.4-1.7.2-.2.4-.2.6-.2h.1l7.3 2.4 3.6 1.2-.1 3.7-10.2-2.9-.5-.2h-.1s-1-.1-1.1-2.3zm11 16.8L2.5 25h-.1s-1.1-.1-1.1-2.3c0-.8.1-1.4.4-1.7.2-.2.4-.2.5-.2h.1l10.9 3.6V28zm14.1-3.8c0 .2 0 .3.1.4L13.8 28l.1-3.7 2.9-.6.4.1 1.6-.5 7.4-1.5 1.4-.3c-.4.9-.4 2-.3 2.7zm.7-4.9l-1.1.3-9.7 2.7-.1-3.7 3.2-1L28 15s.4-.1.7.2c.3.3.4.9.4 1.7 0 2.3-1.1 2.4-1.1 2.4z"/></symbol><symbol id="add" viewBox="0 0 12 12"><path d="M11 5H7V1c0-.5-.5-1-1-1S5 .5 5 1v4H1c-.5 0-1 .5-1 1s.5 1 1 1h4v4c0 .5.5 1 1 1s1-.5 1-1V7h4c.5 0 1-.5 1-1s-.5-1-1-1z"/></symbol><symbol id="clock" viewBox="0 0 14 14"><path d="M7 0C3.1 0 0 3.1 0 7s3.1 7 7 7 7-3.1 7-7-3.1-7-7-7zm0 12.5C4 12.5 1.5 10 1.5 7S4 1.5 7 1.5 12.5 4 12.5 7 10 12.5 7 12.5z"/><path d="M10.6 6.8H7.5V3c0-.3-.3-.6-.6-.6s-.6.3-.6.6v4.4c0 .3.3.6.6.6h3.7c.3 0 .6-.3.6-.6s-.2-.6-.6-.6z"/></symbol></defs><view id="view-empty" viewBox="0 0 50 50"></view><view id="view-vip" viewBox="50 0 50 50"></view><view id="view-book" viewBox="100 0 45.59 50"></view><view id="view-add" viewBox="150 0 50 50"></view><view id="view-clock" viewBox="200 0 50 50"></view><use id="empty" xlink:href="#empty" width="50" height="50" x="0" y="0"></use><use id="vip" xlink:href="#vip" width="50" height="50" x="50" y="0"></use><use id="book" xlink:href="#book" width="45.59" height="50" x="100" y="0"></use><use id="add" xlink:href="#add" width="50" height="50" x="150" y="0"></use><use id="clock" xlink:href="#clock" width="50" height="50" x="200" y="0"></use></svg>